<?xml version="1.0" encoding="utf-8"?>
<!-- Generator: Adobe Illustrator 23.0.1, SVG Export Plug-In . SVG Version: 6.00 Build 0)  -->
<svg version="1.1" id="Layer_1" xmlns="http://www.w3.org/2000/svg" xmlns:xlink="http://www.w3.org/1999/xlink" x="0px" y="0px"
	viewBox="0 0 1836 890" style="enable-background:new 0 0 1836 890;" xml:space="preserve">
<style type="text/css">
	.st0{fill:#FF304F;}
</style>
<g transform="translate(0.000000,890.000000) scale(0.100000,-0.100000)">
	<path class="st0" d="M10540,6160c-93-25-307-130-423-207c-205-138-422-331-555-495c-274-337-472-815-569-1367
		c-30-176-43-499-24-593c15-68,53-108,105-108c81,0,230,107,329,234c34,45,126,161,204,258c78,98,147,186,153,198c18,33-27,26-96-16
		c-78-47-124-92-193-189l-56-80l-7,60c-21,164,51,460,194,800c145,346,310,605,533,834c174,179,348,296,458,308c39,5,49,2,71-20
		c21-21,26-36,26-75c0-146-120-625-245-975c-146-412-277-720-502-1177l-154-315l-112-80c-240-173-484-380-644-549
		c-329-348-536-764-469-940c23-60,73-103,130-111c38-6,53-3,97,21c152,83,423,406,756,900c142,211,318,488,408,643
		c29,50,61,91,79,102c17,11,165,95,328,187l298,167v78c0,42-1,77-3,77s-111-58-243-129c-131-71-240-128-242-126c-2,1,61,130,139,286
		c261,523,306,631,449,1089c208,666,234,780,228,969c-3,101-7,124-32,177C10886,6150,10731,6211,10540,6160z"/>
	<path d="M3870,6037c-189-79-442-334-880-883c-611-766-814-1150-861-1629c-20-201,0-389,47-445c62-73,96-54,240,134
		c191,245,255,326,263,326c3,0,37-62,75-137c121-244,219-368,337-429c69-35,175-44,244-21c116,40,304,204,552,482l133,150v78v79
		l-24-19c-13-10-75-65-137-122c-129-117-251-211-320-246c-155-79-267-46-374,110c-23,33-35,59-29,64c5,5,68,47,139,94
		c255,167,451,327,546,447c106,132,152,287,131,434c-15,102-54,183-101,210c-30,17-41,18-98,9c-80-14-201-74-315-156
		c-185-133-546-471-902-846l-156-165v105v105l102,120c805,946,1438,1752,1562,1988c35,65,35,124,1,156
		C4009,6064,3940,6067,3870,6037z M3615,4295c-1-64-35-136-117-248c-74-99-243-270-356-359l-83-65l-72,38c-40,21-91,41-114,45
		c-24,3-43,8-43,11c0,15,142,176,250,284c199,199,425,354,505,347C3614,4345,3615,4343,3615,4295z"/>
	<path class="st0" d="M14266,4955c-76-27-142-117-167-231c-10-44-24-67-73-122c-105-117-434-470-625-671l-184-194l7-131
		c3-72,11-153,16-181c18-88,66-171,149-254c135-137,260-195,421-195c106-1,180,19,305,82c155,77,404,265,598,452l88,85l-3,76l-3,76
		l-100-79c-212-167-384-269-511-302c-62-16-173-19-229-7c-30,6-30,7,46,58c253,171,412,340,498,525c55,118,66,174,65,313
		c-2,109-6,138-53,320c-43,168-51,213-49,278c2,86,0,89-62,107C14353,4973,14313,4972,14266,4955z M14114,4187c28-233,26-328-10-428
		c-41-119-153-232-280-285l-33-14l-51,75c-93,138-137,173-253,205l-48,13l323,326c178,180,324,327,325,326
		C14088,4405,14100,4307,14114,4187z"/>
	<path d="M5565,4754c-222-50-436-179-673-409c-218-211-325-373-374-570c-31-125-31-362,0-478c32-116,84-207,158-276
		c89-84,147-105,289-105c175,0,315,50,489,175c105,75,309,268,431,409l86,99l-3,69l-3,70l-85-70c-238-195-367-280-515-337
		c-80-31-101-35-190-35c-111-1-137,8-196,66c-50,50-72,110-77,209l-4,86l88,38c322,137,594,303,750,459c151,151,210,273,202,421
		c-3,61-8,78-32,110c-16,21-49,46-74,57C5772,4769,5655,4774,5565,4754z M5595,4476c19-29,13-58-26-137c-64-128-209-277-377-386
		c-75-49-240-133-261-133c-12,0,14,99,44,165c77,175,292,391,480,481C5539,4507,5574,4509,5595,4476z"/>
	<path class="st0" d="M16345,4754c-222-50-436-179-673-409c-218-211-325-373-374-570c-31-125-31-362,0-478c32-116,84-207,158-276
		c89-84,147-105,289-105c175,0,315,50,489,175c105,75,309,268,431,409l86,99l-3,69l-3,70l-85-70c-238-195-367-280-515-337
		c-80-31-101-35-190-35c-111-1-137,8-196,66c-50,50-72,110-77,209l-4,86l88,38c322,137,594,303,750,459c151,151,210,273,202,421
		c-3,61-8,78-32,110c-16,21-49,46-74,57C16552,4769,16435,4774,16345,4754z M16375,4476c19-29,13-58-26-137c-64-128-209-277-377-386
		c-75-49-240-133-261-133c-12,0,14,99,44,165c77,175,292,391,480,481C16319,4507,16354,4509,16375,4476z"/>
	<path class="st0" d="M12100,4725c-190-43-392-167-580-355c-153-153-264-315-329-483c-35-91-36-93-36-242c0-114,5-166,19-215
		c41-148,129-291,225-363c77-59,141-81,241-81c78-1,91,2,165,37c103,49,204,127,308,237l82,87l92,7c50,4,114,13,142,22
		c56,16,150,76,247,156l63,53v83l1,83l-79-60c-44-34-101-72-127-86c-59-31-123-34-149-5c-18,20-17,23,37,138c70,146,81,176,113,304
		c35,138,43,256,21,330c-18,61-42,86-108,107l-38,12l25,37c36,53,35,115-4,151c-16,15-46,33-67,40C12303,4738,12173,4742,12100,4725
		z M12194,4328c-60-105-132-262-166-360c-31-89-32-100-32-243c0-116,3-160,16-192l17-42l-82-55c-45-30-111-70-147-88
		c-58-29-74-33-145-33c-60,0-90,5-120,20c-49,24-85,76-85,122c0,50,57,308,78,356c43,94,141,200,300,321c71,54,382,256,394,256
		C12226,4390,12214,4362,12194,4328z"/>
	<path d="M8024,4661c-58-21-72-29-209-125c-251-175-465-374-755-701c-97-110-188-206-203-214c-32-17-54-9-69,24
		c-33,72,83,256,351,555c52,58,107,123,122,144c56,75,31,151-57,175c-165,46-303-52-531-377c-113-161-189-296-207-367
		c-21-79-21-277,0-386c24-126,68-233,120-286c39-42,46-45,79-40c68,11,92,37,352,377c142,185,260,316,409,452
		c116,106,249,207,259,196c3-3-37-76-88-164c-291-495-324-574-315-750c5-103,28-158,80-196c28-19,45-23,113-23c71,0,87,4,140,33
		c116,63,278,199,546,460l149,144v79c0,44-2,79-4,79c-3,0-83-59-178-131c-193-145-288-199-353-199c-112,0-120,129-18,305
		c59,104,185,270,317,420c58,66,115,139,128,162c21,40,22,45,10,128c-21,143-69,245-115,245C8085,4679,8052,4671,8024,4661z"/>
</g>
</svg>

